<svg width="1200" height="760" viewBox="0 0 1200 760" fill="none" xmlns="http://www.w3.org/2000/svg">
  <rect width="1200" height="760" rx="24" fill="#F7FBFD"/>
  <rect x="42" y="42" width="1116" height="676" rx="18" fill="#FFFFFF" stroke="#D7E2EA"/>
  <rect x="74" y="74" width="106" height="28" rx="14" fill="#0E4D64" fill-opacity="0.2"/>
  <rect x="196" y="80" width="190" height="16" rx="8" fill="#0E4D64" fill-opacity="0.16"/>
  <rect x="74" y="132" width="1084" height="1" fill="#E2EDF3"/>
  <rect x="74" y="158" width="256" height="528" rx="14" fill="#F5FAFD" stroke="#D7E2EA"/>
  <rect x="100" y="194" width="136" height="14" rx="7" fill="#0E4D64" fill-opacity="0.2"/>
  <rect x="100" y="224" width="204" height="10" rx="5" fill="#CFE1EC"/>
  <rect x="100" y="244" width="178" height="10" rx="5" fill="#CFE1EC"/>
  <rect x="100" y="286" width="204" height="72" rx="10" fill="#FFFFFF" stroke="#D7E2EA"/>
  <rect x="100" y="370" width="204" height="72" rx="10" fill="#FFFFFF" stroke="#D7E2EA"/>
  <rect x="100" y="454" width="204" height="72" rx="10" fill="#FFFFFF" stroke="#D7E2EA"/>
  <rect x="362" y="158" width="796" height="250" rx="14" fill="#FFFFFF" stroke="#D7E2EA"/>
  <rect x="394" y="192" width="240" height="16" rx="8" fill="#0E4D64" fill-opacity="0.18"/>
  <rect x="394" y="224" width="734" height="1" fill="#E2EDF3"/>
  <rect x="394" y="248" width="734" height="26" rx="8" fill="#F5FAFD"/>
  <rect x="394" y="284" width="734" height="26" rx="8" fill="#F5FAFD"/>
  <rect x="394" y="320" width="734" height="26" rx="8" fill="#F5FAFD"/>
  <rect x="362" y="436" width="796" height="250" rx="14" fill="#FFFFFF" stroke="#D7E2EA"/>
  <rect x="394" y="470" width="220" height="16" rx="8" fill="#0E4D64" fill-opacity="0.18"/>
  <rect x="394" y="502" width="734" height="1" fill="#E2EDF3"/>
  <rect x="394" y="528" width="226" height="126" rx="12" fill="#F5FAFD" stroke="#D7E2EA"/>
  <rect x="640" y="528" width="226" height="126" rx="12" fill="#F5FAFD" stroke="#D7E2EA"/>
  <rect x="886" y="528" width="242" height="126" rx="12" fill="#F5FAFD" stroke="#D7E2EA"/>
</svg>
