<svg width="1200" height="760" viewBox="0 0 1200 760" fill="none" xmlns="http://www.w3.org/2000/svg">
  <rect width="1200" height="760" rx="24" fill="#F7FBFD"/>
  <rect x="40" y="40" width="1120" height="680" rx="18" fill="#FFFFFF" stroke="#D7E2EA"/>
  <rect x="72" y="72" width="300" height="616" rx="14" fill="#FFFFFF" stroke="#D7E2EA"/>
  <rect x="98" y="108" width="168" height="14" rx="7" fill="#0E4D64" fill-opacity="0.2"/>
  <rect x="98" y="138" width="246" height="1" fill="#E2EDF3"/>
  <rect x="98" y="160" width="246" height="72" rx="10" fill="#F5FAFD" stroke="#D7E2EA"/>
  <rect x="98" y="244" width="246" height="72" rx="10" fill="#F5FAFD" stroke="#D7E2EA"/>
  <rect x="98" y="328" width="246" height="72" rx="10" fill="#F5FAFD" stroke="#D7E2EA"/>
  <rect x="98" y="412" width="246" height="72" rx="10" fill="#F5FAFD" stroke="#D7E2EA"/>
  <rect x="404" y="72" width="724" height="392" rx="14" fill="#FFFFFF" stroke="#D7E2EA"/>
  <rect x="434" y="104" width="220" height="16" rx="8" fill="#0E4D64" fill-opacity="0.18"/>
  <rect x="434" y="138" width="664" height="1" fill="#E2EDF3"/>
  <rect x="434" y="164" width="316" height="270" rx="12" fill="#E9F3F8"/>
  <path d="M458 362L536 296L596 334L666 258L726 302" stroke="#16A34A" stroke-width="6" stroke-linecap="round" stroke-linejoin="round"/>
  <rect x="770" y="164" width="328" height="126" rx="12" fill="#F5FAFD" stroke="#D7E2EA"/>
  <rect x="792" y="188" width="146" height="12" rx="6" fill="#0E4D64" fill-opacity="0.2"/>
  <rect x="792" y="212" width="278" height="10" rx="5" fill="#CFE1EC"/>
  <rect x="792" y="234" width="220" height="10" rx="5" fill="#CFE1EC"/>
  <rect x="770" y="308" width="328" height="126" rx="12" fill="#F5FAFD" stroke="#D7E2EA"/>
  <rect x="792" y="332" width="170" height="12" rx="6" fill="#0E4D64" fill-opacity="0.2"/>
  <rect x="792" y="356" width="278" height="10" rx="5" fill="#CFE1EC"/>
  <rect x="792" y="378" width="200" height="10" rx="5" fill="#CFE1EC"/>
  <rect x="404" y="488" width="724" height="200" rx="14" fill="#FFFFFF" stroke="#D7E2EA"/>
  <rect x="434" y="518" width="200" height="16" rx="8" fill="#0E4D64" fill-opacity="0.18"/>
  <rect x="434" y="550" width="664" height="1" fill="#E2EDF3"/>
  <rect x="434" y="572" width="664" height="86" rx="12" fill="#F5FAFD" stroke="#D7E2EA"/>
</svg>
